<?xml version="1.0" encoding="iso-8859-1"?>
<!-- Generator: Adobe Illustrator 19.0.0, SVG Export Plug-In . SVG Version: 6.00 Build 0)  -->
<svg xmlns="http://www.w3.org/2000/svg" xmlns:xlink="http://www.w3.org/1999/xlink" version="1.1" id="Layer_1" x="0px" y="0px" viewBox="0 0 512 512" style="enable-background:new 0 0 512 512;" xml:space="preserve">
<rect x="135.739" y="127.72" style="fill:#85C8EB;" width="226.627" height="311.953"/>
<rect x="202.655" y="392.128" style="fill:#E7F3F7;" width="93.777" height="47.557"/>
<rect x="165.489" y="70.171" style="fill:#B0BBBF;" width="167.128" height="57.56"/>
<rect x="123.074" y="439.674" style="fill:#C5D5DD;" width="251.958" height="31.388"/>
<rect x="100.255" y="471.062" style="fill:#E7F3F7;" width="297.499" height="31.388"/>
<path style="fill:#36CC6B;" d="M482.975,328.904c1.237-2.936,1.922-6.163,1.922-9.55c0-13.602-11.028-24.63-24.632-24.63  c-13.602,0-24.63,11.027-24.63,24.63c0,3.388,0.684,6.615,1.922,9.552c-5.361,6.163-8.659,14.5-8.659,23.687  c0,18.974,14.045,34.358,31.367,34.358c17.325,0,31.369-15.384,31.369-34.358C491.634,343.406,488.338,335.068,482.975,328.904z"/>
<path style="fill:#B0E046;" d="M62.16,349.314c1.237-2.936,1.922-6.163,1.922-9.55c0-13.602-11.027-24.63-24.632-24.63  c-13.602,0-24.63,11.027-24.63,24.63c0,3.388,0.684,6.615,1.922,9.552c-5.359,6.163-8.658,14.5-8.658,23.687  c0,18.974,14.045,34.358,31.367,34.358c17.325,0,31.369-15.384,31.369-34.358C70.819,363.816,67.523,355.479,62.16,349.314z"/>
<path style="fill:#36CC6B;" d="M120.261,338.693c1.237-2.936,1.922-6.163,1.922-9.55c0-13.602-11.027-24.63-24.632-24.63  c-13.602,0-24.63,11.027-24.63,24.63c0,3.388,0.684,6.615,1.922,9.552c-4.098,4.71-6.984,10.693-8.119,17.352  c2.601,5.004,4.094,10.785,4.094,16.955c0,2.167-0.192,4.282-0.542,6.338c5.396,10.388,15.585,17.399,27.275,17.399  c17.325,0,31.369-15.385,31.369-34.358C128.921,353.195,125.623,344.858,120.261,338.693z"/>
<path style="fill:#B0E046;" d="M428.9,352.592c0-3.053,0.372-6.008,1.055-8.826c-0.286-0.356-0.576-0.708-0.874-1.051  c1.237-2.936,1.922-6.163,1.922-9.55c0-13.602-11.027-24.63-24.632-24.63c-13.602,0-24.63,11.027-24.63,24.63  c0,3.388,0.684,6.615,1.922,9.552c-5.361,6.163-8.659,14.5-8.659,23.687c0,18.974,14.045,34.358,31.367,34.358  c14.535,0,26.757-10.832,30.317-25.526C431.843,369.19,428.9,361.269,428.9,352.592z"/>
<g>
	<path style="fill:#36CC6B;" d="M495.467,462.588c-2.223,0-4.349,0.383-6.333,1.084c-0.371-16.48-13.834-29.727-30.4-29.727   c-14.942,0-27.359,10.778-29.923,24.984c-4.396-4.329-10.426-7-17.081-7c-1.79,0-3.535,0.203-5.217,0.568   c-4.622-10.902-15.412-18.553-27.999-18.553c-6.632,0-12.764,2.128-17.762,5.731h14.272v31.389h22.723v31.388h25.945h10.889h19.334   h50v-37.873C501.371,463.312,498.506,462.588,495.467,462.588z"/>
	<path style="fill:#36CC6B;" d="M123.074,471.065v-22.293c-1.116-0.147-2.253-0.23-3.408-0.23c-1.91,0-3.773,0.217-5.566,0.608   c-4.931-11.633-16.444-19.796-29.875-19.796c-15.941,0-29.192,11.5-31.927,26.657c-4.69-4.619-11.123-7.47-18.225-7.47   c-13.752,0-25.001,10.686-25.918,24.206c-0.024-0.006-0.046-0.011-0.069-0.017v29.721h81.749h10.418v-31.388h22.822V471.065z"/>
</g>
<g>
	<path style="fill:#231F20;" d="M168.114,240.871c-4.466,0-8.084-3.618-8.084-8.084v-70.315c0-4.466,3.618-8.084,8.084-8.084   c4.466,0,8.084,3.618,8.084,8.084v70.314C176.198,237.252,172.578,240.871,168.114,240.871z"/>
	<path style="fill:#231F20;" d="M200.488,240.871c-4.466,0-8.084-3.618-8.084-8.084v-70.315c0-4.466,3.618-8.084,8.084-8.084   c4.466,0,8.084,3.618,8.084,8.084v70.314C208.573,237.252,204.954,240.871,200.488,240.871z"/>
	<path style="fill:#231F20;" d="M232.863,240.871c-4.466,0-8.084-3.618-8.084-8.084v-70.315c0-4.466,3.618-8.084,8.084-8.084   c4.466,0,8.084,3.618,8.084,8.084v70.314C240.947,237.252,237.329,240.871,232.863,240.871z"/>
	<path style="fill:#231F20;" d="M265.236,240.871c-4.466,0-8.084-3.618-8.084-8.084v-70.315c0-4.466,3.618-8.084,8.084-8.084   c4.466,0,8.084,3.618,8.084,8.084v70.314C273.321,237.252,269.702,240.871,265.236,240.871z"/>
	<path style="fill:#231F20;" d="M297.612,240.871c-4.466,0-8.084-3.618-8.084-8.084v-70.315c0-4.466,3.618-8.084,8.084-8.084   c4.465,0,8.084,3.618,8.084,8.084v70.314C305.696,237.252,302.077,240.871,297.612,240.871z"/>
	<path style="fill:#231F20;" d="M329.987,240.871c-4.466,0-8.084-3.618-8.084-8.084v-70.315c0-4.466,3.618-8.084,8.084-8.084   s8.084,3.618,8.084,8.084v70.314C338.071,237.252,334.451,240.871,329.987,240.871z"/>
	<path style="fill:#231F20;" d="M168.114,338.462c-4.466,0-8.084-3.618-8.084-8.084v-70.315c0-4.466,3.618-8.084,8.084-8.084   c4.466,0,8.084,3.618,8.084,8.084v70.315C176.198,334.843,172.578,338.462,168.114,338.462z"/>
	<path style="fill:#231F20;" d="M200.488,338.462c-4.466,0-8.084-3.618-8.084-8.084v-70.315c0-4.466,3.618-8.084,8.084-8.084   c4.466,0,8.084,3.618,8.084,8.084v70.315C208.573,334.843,204.954,338.462,200.488,338.462z"/>
	<path style="fill:#231F20;" d="M265.236,338.462c-4.466,0-8.084-3.618-8.084-8.084v-70.315c0-4.466,3.618-8.084,8.084-8.084   c4.466,0,8.084,3.618,8.084,8.084v70.315C273.321,334.843,269.702,338.462,265.236,338.462z"/>
	<path style="fill:#231F20;" d="M297.612,338.462c-4.466,0-8.084-3.618-8.084-8.084v-70.315c0-4.466,3.618-8.084,8.084-8.084   c4.465,0,8.084,3.618,8.084,8.084v70.315C305.696,334.843,302.077,338.462,297.612,338.462z"/>
	<path style="fill:#231F20;" d="M329.987,338.462c-4.466,0-8.084-3.618-8.084-8.084v-70.315c0-4.466,3.618-8.084,8.084-8.084   s8.084,3.618,8.084,8.084v70.315C338.071,334.843,334.451,338.462,329.987,338.462z"/>
	<path style="fill:#231F20;" d="M296.428,376.105h-93.777c-4.466,0-8.084-3.618-8.084-8.084s3.618-8.084,8.084-8.084h93.777   c4.466,0,8.084,3.618,8.084,8.084C304.512,372.485,300.892,376.105,296.428,376.105z"/>
	<path style="fill:#231F20;" d="M507.525,457.347c-3.644-1.817-7.542-2.771-11.593-2.839c-3.582-13.344-14.24-23.914-27.58-27.41   v-32.964c17.889-4.024,31.368-21.119,31.368-41.542c0-9.16-2.717-17.954-7.725-25.228c0.656-2.602,0.988-5.282,0.988-8.011   c0-18.038-14.676-32.714-32.716-32.714c-14.644,0-27.072,9.674-31.231,22.967c-5.884-5.662-13.871-9.156-22.664-9.156   c-18.038,0-32.714,14.676-32.714,32.714c0,2.728,0.332,5.409,0.988,8.012c-1.659,2.409-3.06,4.987-4.201,7.689V127.722   c0-4.465-3.618-8.084-8.084-8.084h-21.664V70.169c0-4.466-3.618-8.084-8.084-8.084h-75.529V9.546c0-4.466-3.618-8.084-8.084-8.084   s-8.084,3.618-8.084,8.084v52.538h-75.429c-4.466,0-8.084,3.618-8.084,8.084v49.47h-21.664c-4.465,0-8.084,3.62-8.084,8.084   v188.615c-4.993-11.693-16.606-19.91-30.103-19.91c-15.096,0-27.83,10.281-31.584,24.207c-5.948-8.222-15.614-13.586-26.516-13.586   c-18.037,0-32.714,14.676-32.714,32.714c0,2.728,0.332,5.409,0.988,8.012C2.717,355.049,0,363.843,0,373.003   c0,20.423,13.479,37.519,31.368,41.543v26.03c-16.223,1.292-29.474,14.088-31.174,30.398C0.067,471.546,0,472.136,0,472.733v29.721   c0,4.466,3.618,8.084,8.084,8.084h92.166H397.75h106.166c4.466,0,8.084-3.618,8.084-8.084v-37.873   C512,461.516,510.267,458.715,507.525,457.347z M414.457,407.946c10.559-2.374,19.723-9.314,25.381-19.057   c3.752,2.453,7.914,4.249,12.345,5.246v32.306c-11.895,2.043-22.066,9.531-27.567,20.06c-3.199-1.386-6.626-2.242-10.159-2.536   V407.946z M445.009,325.767c-0.854-2.029-1.287-4.187-1.287-6.413c0-9.123,7.422-16.546,16.546-16.546   c9.124,0,16.548,7.422,16.548,16.546c0,2.227-0.432,4.384-1.287,6.409c-1.198,2.842-0.675,6.119,1.35,8.446   c4.304,4.949,6.674,11.477,6.674,18.383c0,11.28-6.334,20.922-15.199,24.637v-24.637c0-4.466-3.618-8.084-8.084-8.084   s-8.084,3.618-8.084,8.084v24.639c-3.512-1.472-6.627-3.873-9.107-6.939c-0.028-0.036-0.051-0.074-0.079-0.111   c-1.935-2.414-3.436-5.181-4.454-8.154c-0.003-0.009-0.006-0.017-0.009-0.026c-0.247-0.721-0.462-1.456-0.651-2.201   c-0.01-0.04-0.02-0.08-0.03-0.119c-0.18-0.723-0.332-1.456-0.457-2.197c-0.011-0.065-0.02-0.129-0.031-0.193   c-0.117-0.73-0.21-1.466-0.273-2.209c-0.005-0.068-0.009-0.136-0.014-0.204c-0.058-0.758-0.094-1.52-0.094-2.286   c0-0.751,0.04-1.496,0.096-2.238c0.018-0.238,0.04-0.476,0.064-0.715c0.054-0.543,0.126-1.081,0.21-1.617   c0.045-0.289,0.089-0.578,0.143-0.864c0.907-4.847,3.008-9.324,6.161-12.949C445.683,331.884,446.206,328.609,445.009,325.767z    M389.765,348.023c2.023-2.326,2.547-5.602,1.35-8.444c-0.854-2.029-1.287-4.187-1.287-6.413c0-9.123,7.422-16.546,16.546-16.546   c9.124,0,16.548,7.422,16.548,16.546c0,2.227-0.432,4.384-1.287,6.409c-0.776,1.84-0.83,3.862-0.222,5.69   c-0.002,0.011-0.003,0.022-0.004,0.031c-0.088,0.55-0.167,1.102-0.236,1.658c-0.008,0.063-0.017,0.124-0.024,0.185   c-0.061,0.515-0.113,1.032-0.157,1.55c-0.009,0.096-0.019,0.191-0.027,0.287c-0.039,0.492-0.067,0.984-0.089,1.477   c-0.005,0.114-0.014,0.229-0.019,0.343c-0.024,0.597-0.037,1.196-0.037,1.797c0,0.979,0.042,1.947,0.103,2.908   c0.014,0.212,0.029,0.425,0.045,0.637c0.153,1.982,0.433,3.926,0.832,5.822c0.027,0.13,0.055,0.259,0.083,0.388   c0.425,1.933,0.971,3.815,1.632,5.635c0.06,0.166,0.121,0.332,0.182,0.497c0.33,0.876,0.679,1.741,1.061,2.586   c0.067,0.149,0.141,0.292,0.209,0.44c0.31,0.668,0.638,1.326,0.98,1.975c0.151,0.287,0.302,0.573,0.458,0.857   c0.384,0.689,0.78,1.367,1.199,2.029c0.068,0.108,0.125,0.222,0.194,0.329c-2.529,6.696-7.413,11.84-13.339,14.33v-24.619   c0-4.466-3.618-8.084-8.084-8.084s-8.084,3.618-8.084,8.084v24.639c-8.865-3.715-15.199-13.357-15.199-24.639   C383.089,359.499,385.459,352.971,389.765,348.023z M398.289,407.946v23.391c-5.851-3.504-12.64-5.478-19.774-5.478   c-2.743,0-5.439,0.309-8.069,0.871v-42.827C375.576,396.047,385.864,405.152,398.289,407.946z M131.158,462.981v-14.209v-1.012   h4.581h66.911h93.777h64.327h1.607h4.581v15.221H131.158z M288.343,431.592h-31.259v-31.383h31.259V431.592z M240.916,431.592   h-30.181v-31.383h30.181V431.592z M173.57,78.254h150.959v41.386H173.57V78.254z M143.823,135.807h21.664h167.128h21.664v295.785   h-49.765v-39.467c0-4.466-3.618-8.084-8.084-8.084h-93.777c-4.466,0-8.084,3.618-8.084,8.084v39.467h-50.744V135.807z    M127.655,389.772v41.82h-4.581c-3.261,0-6.062,1.934-7.342,4.714c-2.857-3.538-6.28-6.535-10.096-8.91v-23.471   C114.387,401.955,122.077,396.857,127.655,389.772z M47.536,414.545c10.66-2.398,19.748-9.442,25.356-19.064   c4.814,4.148,10.487,7.058,16.576,8.432v17.696c-1.722-0.224-3.474-0.338-5.244-0.338c-15.605,0-29.404,8.854-36.156,22.181   c-0.188-0.085-0.38-0.157-0.57-0.239c0.023-0.247,0.038-0.495,0.038-0.747V414.545z M82.294,335.557   c-0.854-2.029-1.287-4.187-1.287-6.413c0-9.123,7.422-16.546,16.546-16.546c9.124,0,16.548,7.422,16.548,16.546   c0,2.227-0.432,4.384-1.287,6.409c-1.198,2.842-0.675,6.119,1.35,8.446c4.304,4.949,6.674,11.477,6.674,18.383   c0,11.28-6.334,20.922-15.199,24.637v-24.637c0-4.466-3.618-8.084-8.084-8.084s-8.084,3.618-8.084,8.084v24.617   c-4.291-1.809-8.081-5.028-10.811-9.297c0.001-0.009,0.001-0.018,0.002-0.027c0.072-0.705,0.127-1.415,0.167-2.13   c0.004-0.077,0.012-0.154,0.016-0.231c0.039-0.765,0.06-1.536,0.06-2.312c0-0.708-0.022-1.414-0.054-2.118   c-0.008-0.167-0.018-0.333-0.028-0.499c-0.034-0.615-0.082-1.229-0.141-1.84c-0.009-0.088-0.015-0.176-0.025-0.263   c-0.476-4.617-1.644-9.086-3.454-13.248c1.068-4.136,3.028-7.913,5.742-11.033C82.968,341.674,83.492,338.398,82.294,335.557z    M16.168,373.003c0-6.905,2.37-13.433,6.674-18.381c2.023-2.326,2.547-5.602,1.35-8.444c-0.854-2.029-1.287-4.187-1.287-6.413   c0-9.123,7.422-16.546,16.546-16.546c9.124,0,16.548,7.422,16.548,16.546c0,2.227-0.432,4.384-1.287,6.409   c-1.198,2.842-0.675,6.119,1.35,8.446c1.482,1.704,2.717,3.607,3.723,5.636c0.146,0.293,0.291,0.586,0.426,0.885   c0.239,0.531,0.463,1.07,0.67,1.618c0.122,0.323,0.23,0.653,0.341,0.983c0.133,0.395,0.259,0.791,0.374,1.193   c0.088,0.308,0.175,0.618,0.253,0.929c0.144,0.579,0.276,1.163,0.385,1.754c0.045,0.241,0.082,0.484,0.121,0.727   c0.091,0.572,0.167,1.149,0.225,1.73c0.023,0.226,0.043,0.453,0.06,0.68c0.056,0.744,0.096,1.493,0.096,2.247   c0,1.642-0.144,3.317-0.427,4.979c-0.002,0.012-0.001,0.024-0.003,0.037c-1.559,9.059-7.251,16.471-14.768,19.622v-24.637   c0-4.466-3.618-8.084-8.084-8.084s-8.084,3.618-8.084,8.084v24.639C22.502,393.926,16.168,384.284,16.168,373.003z M92.166,471.065   v23.304H16.168v-20.562c0.023-0.169,0.039-0.34,0.051-0.511c0.635-9.348,8.475-16.67,17.853-16.67   c4.725,0,9.184,1.827,12.553,5.145c2.136,2.104,5.259,2.854,8.118,1.946c2.856-0.906,4.978-3.319,5.51-6.269   c2.092-11.595,12.174-20.009,23.971-20.009c9.798,0,18.603,5.836,22.432,14.867c1.407,3.317,4.807,5.259,8.333,4.88v5.795h-14.739   C95.785,462.981,92.166,466.601,92.166,471.065z M108.335,479.15h14.739h251.952h14.639v15.22H108.335L108.335,479.15   L108.335,479.15z M495.832,494.37h-89.998v-23.304c0-4.466-3.618-8.084-8.084-8.084h-14.639v-20.477   c7.059,1.479,13.063,6.315,15.96,13.148c1.518,3.579,5.37,5.571,9.164,4.743c5.51-1.205,11.02,0.469,14.904,4.292   c2.135,2.104,5.259,2.855,8.118,1.946c2.856-0.907,4.978-3.319,5.51-6.269c1.918-10.624,11.156-18.336,21.967-18.336   c12.036,0,22.047,9.791,22.318,21.825c0.058,2.591,1.356,4.998,3.489,6.471c2.132,1.472,4.841,1.835,7.288,0.969   c1.282-0.454,2.646-0.667,4.002-0.615V494.37z"/>
	<path style="fill:#231F20;" d="M309.362,107.03H190.794c-4.466,0-8.084-3.618-8.084-8.084s3.618-8.084,8.084-8.084h118.568   c4.466,0,8.084,3.618,8.084,8.084C317.446,103.411,313.827,107.03,309.362,107.03z"/>
	<path style="fill:#231F20;" d="M232.863,338.462c-4.466,0-8.084-3.618-8.084-8.084v-70.315c0-4.466,3.618-8.084,8.084-8.084   c4.466,0,8.084,3.618,8.084,8.084v70.315C240.947,334.843,237.329,338.462,232.863,338.462z"/>
</g>
<g style="opacity:0.1;">
	<rect x="173.552" y="73.826" style="fill:#231F20;" width="17.246" height="47.492"/>
</g>
<g style="opacity:0.1;">
	<rect x="143.683" y="128.798" style="fill:#231F20;" width="17.246" height="310.876"/>
</g>
<g style="opacity:0.1;">
	<rect x="131.158" y="442.466" style="fill:#231F20;" width="17.246" height="25.664"/>
</g>
<g style="opacity:0.1;">
	<rect x="108.393" y="471.633" style="fill:#231F20;" width="17.246" height="27.826"/>
</g>
<g>
</g>
<g>
</g>
<g>
</g>
<g>
</g>
<g>
</g>
<g>
</g>
<g>
</g>
<g>
</g>
<g>
</g>
<g>
</g>
<g>
</g>
<g>
</g>
<g>
</g>
<g>
</g>
<g>
</g>
</svg>
