<?xml version="1.0" standalone="no"?>
<!DOCTYPE svg PUBLIC "-//W3C//DTD SVG 20010904//EN"
 "http://www.w3.org/TR/2001/REC-SVG-20010904/DTD/svg10.dtd">
<svg version="1.0" xmlns="http://www.w3.org/2000/svg"
 width="128.000000pt" height="128.000000pt" viewBox="0 0 128.000000 128.000000"
 preserveAspectRatio="xMidYMid meet">

<g transform="translate(0.000000,128.000000) scale(0.100000,-0.100000)"
fill="#000000" stroke="none">
<path d="M20 1260 c-19 -19 -20 -33 -20 -343 0 -374 -4 -357 95 -365 l55 -4 0
-274 0 -274 490 0 490 0 0 150 c0 143 -1 150 -20 150 -19 0 -20 -7 -20 -130
l0 -130 -450 0 -450 0 0 254 0 255 186 3 c181 3 186 4 205 27 18 22 19 42 19
297 l0 274 115 0 115 0 0 -125 0 -124 128 -3 127 -3 3 -147 c2 -140 4 -148 22
-148 19 0 20 7 20 163 l0 162 -133 133 -132 132 -133 0 c-122 0 -132 1 -132
19 0 10 -9 30 -21 45 l-20 26 -260 0 c-246 0 -260 -1 -279 -20z m528 -343 l2
-317 -252 2 -253 3 -3 304 c-2 218 1 308 9 317 10 12 57 14 253 12 l241 -3 3
-318z m422 108 l85 -85 -93 0 -92 0 0 85 c0 47 3 85 8 85 4 0 45 -38 92 -85z"/>
<path d="M67 1213 c-4 -3 -7 -37 -7 -75 l0 -68 235 0 235 0 0 75 0 75 -228 0
c-126 0 -232 -3 -235 -7z m423 -73 l0 -30 -190 0 -190 0 0 30 0 30 190 0 190
0 0 -30z"/>
<path d="M106 1037 c-13 -10 -17 -24 -14 -62 l3 -50 43 -3 c56 -4 72 10 72 64
0 39 -3 46 -26 54 -34 13 -57 13 -78 -3z m64 -57 c0 -13 -7 -20 -20 -20 -13 0
-20 7 -20 20 0 13 7 20 20 20 13 0 20 -7 20 -20z"/>
<path d="M250 1030 c-22 -22 -25 -46 -10 -84 8 -22 16 -26 53 -26 54 0 67 13
67 67 0 37 -4 45 -26 53 -38 15 -62 12 -84 -10z m70 -50 c0 -13 -7 -20 -20
-20 -13 0 -20 7 -20 20 0 13 7 20 20 20 13 0 20 -7 20 -20z"/>
<path d="M400 1030 c-22 -22 -26 -60 -10 -91 8 -14 21 -19 53 -19 54 0 67 13
67 67 0 37 -4 45 -26 53 -38 15 -62 12 -84 -10z m70 -50 c0 -13 -7 -20 -20
-20 -13 0 -20 7 -20 20 0 13 7 20 20 20 13 0 20 -7 20 -20z"/>
<path d="M108 889 c-13 -7 -18 -23 -18 -58 0 -54 8 -61 64 -61 43 0 56 16 56
67 0 32 -5 45 -19 53 -25 13 -61 12 -83 -1z m62 -59 c0 -13 -7 -20 -20 -20
-13 0 -20 7 -20 20 0 13 7 20 20 20 13 0 20 -7 20 -20z"/>
<path d="M250 880 c-22 -22 -25 -46 -10 -84 8 -22 16 -26 53 -26 54 0 67 13
67 67 0 32 -5 45 -19 53 -31 16 -69 12 -91 -10z m70 -50 c0 -13 -7 -20 -20
-20 -13 0 -20 7 -20 20 0 13 7 20 20 20 13 0 20 -7 20 -20z"/>
<path d="M400 880 c-22 -22 -26 -60 -10 -91 8 -14 21 -19 53 -19 54 0 67 13
67 67 0 32 -5 45 -19 53 -31 16 -69 12 -91 -10z m70 -50 c0 -13 -7 -20 -20
-20 -13 0 -20 7 -20 20 0 13 7 20 20 20 13 0 20 -7 20 -20z"/>
<path d="M108 739 c-13 -7 -18 -23 -18 -58 0 -54 8 -61 64 -61 43 0 56 16 56
67 0 32 -5 45 -19 53 -25 13 -61 12 -83 -1z m62 -59 c0 -13 -7 -20 -20 -20
-13 0 -20 7 -20 20 0 13 7 20 20 20 13 0 20 -7 20 -20z"/>
<path d="M249 729 c-17 -17 -20 -29 -15 -57 6 -42 19 -52 66 -52 47 0 60 15
60 67 0 32 -5 45 -19 53 -31 16 -69 12 -92 -11z m71 -49 c0 -13 -7 -20 -20
-20 -13 0 -20 7 -20 20 0 13 7 20 20 20 13 0 20 -7 20 -20z"/>
<path d="M400 730 c-22 -22 -26 -60 -10 -91 8 -14 21 -19 53 -19 54 0 67 13
67 67 0 32 -5 45 -19 53 -31 16 -69 12 -91 -10z m70 -50 c0 -13 -7 -20 -20
-20 -13 0 -20 7 -20 20 0 13 7 20 20 20 13 0 20 -7 20 -20z"/>
<path d="M680 810 c0 -15 7 -20 25 -20 18 0 25 5 25 20 0 15 -7 20 -25 20 -18
0 -25 -5 -25 -20z"/>
<path d="M770 810 c0 -19 7 -20 125 -20 118 0 125 1 125 20 0 19 -7 20 -125
20 -118 0 -125 -1 -125 -20z"/>
<path d="M684 735 c-4 -9 -2 -21 4 -27 15 -15 44 -1 40 19 -4 23 -36 29 -44 8z"/>
<path d="M770 725 l0 -25 125 0 125 0 0 25 0 25 -125 0 -125 0 0 -25z"/>
<path d="M680 640 c0 -15 7 -20 25 -20 18 0 25 5 25 20 0 15 -7 20 -25 20 -18
0 -25 -5 -25 -20z"/>
<path d="M770 640 c0 -19 7 -20 125 -20 118 0 125 1 125 20 0 19 -7 20 -125
20 -118 0 -125 -1 -125 -20z"/>
<path d="M998 423 c-157 -156 -204 -209 -223 -252 -42 -91 -30 -100 70 -52 49
23 95 65 248 218 203 205 213 221 161 262 -15 12 -34 21 -42 21 -9 0 -105 -89
-214 -197z m235 141 c9 -10 -4 -34 -18 -34 -17 0 -28 17 -20 30 7 11 28 13 38
4z m-56 -80 c-9 -10 -38 16 -31 28 4 6 13 4 22 -6 9 -8 13 -19 9 -22z m-49
-27 c9 -10 -19 -43 -121 -144 -141 -140 -187 -175 -187 -141 0 12 279 298 291
298 4 0 11 -6 17 -13z"/>
<path d="M684 565 c-4 -9 -2 -21 4 -27 15 -15 44 -1 40 19 -4 23 -36 29 -44 8z"/>
<path d="M770 555 l0 -25 125 0 125 0 0 25 0 25 -125 0 -125 0 0 -25z"/>
<path d="M405 491 c-158 -72 -167 -297 -15 -379 38 -20 56 -23 112 -20 82 4
139 39 176 108 34 64 29 160 -12 218 -56 81 -173 114 -261 73z m165 -44 c116
-61 118 -230 5 -294 -164 -93 -336 113 -212 254 58 66 132 80 207 40z"/>
<path d="M470 415 c0 -8 -6 -15 -13 -15 -22 0 -47 -34 -47 -63 0 -29 32 -57
66 -57 33 0 54 -10 54 -26 0 -16 -65 -20 -75 -4 -9 15 -45 12 -45 -3 0 -7 16
-28 36 -45 35 -31 64 -41 64 -22 0 5 13 16 29 24 61 32 43 94 -33 113 -55 14
-61 17 -51 32 8 14 62 14 70 1 9 -15 45 -12 45 3 0 16 -32 47 -48 47 -7 0 -12
7 -12 15 0 8 -9 15 -20 15 -11 0 -20 -7 -20 -15z"/>
</g>
</svg>
