<?xml version="1.0" encoding="iso-8859-1"?>
<!-- Uploaded to: SVG Repo, www.svgrepo.com, Generator: SVG Repo Mixer Tools -->
<!DOCTYPE svg PUBLIC "-//W3C//DTD SVG 1.1//EN" "http://www.w3.org/Graphics/SVG/1.1/DTD/svg11.dtd">
<svg fill="#000000" height="800px" width="800px" version="1.1" id="Capa_1" xmlns="http://www.w3.org/2000/svg" xmlns:xlink="http://www.w3.org/1999/xlink" 
	 viewBox="0 0 432.039 432.039" xml:space="preserve">
<g>
	<path d="M407.814,1.52H24.225C10.867,1.52,0,12.387,0,25.744v380.551c0,13.357,10.867,24.225,24.225,24.225h383.59
		c13.357,0,24.225-10.867,24.225-24.225V25.744C432.039,12.387,421.172,1.52,407.814,1.52z M24.225,13.52h383.59
		c6.741,0,12.225,5.484,12.225,12.225v97.775H12V25.744C12,19.004,17.484,13.52,24.225,13.52z M407.814,418.52H24.225
		c-6.741,0-12.225-5.484-12.225-12.225V135.52h408.039v270.775C420.039,413.035,414.555,418.52,407.814,418.52z"/>
	<path d="M38.238,107.52h355.563c3.313,0,6-2.687,6-6v-62c0-3.313-2.687-6-6-6H38.238c-3.313,0-6,2.687-6,6v62
		C32.238,104.833,34.925,107.52,38.238,107.52z M44.238,45.52h343.563v50H44.238V45.52z"/>
	<path d="M54.143,170.52H33.146c-8.125,0-14.734,6.609-14.734,14.734v18.166c0,8.125,6.61,14.734,14.734,14.734h20.998
		c8.125,0,14.734-6.609,14.734-14.734v-18.166C68.877,177.129,62.268,170.52,54.143,170.52z M56.877,203.42
		c0,1.508-1.227,2.734-2.734,2.734H33.146c-1.508,0-2.734-1.227-2.734-2.734v-18.166c0-1.508,1.227-2.734,2.734-2.734h20.998
		c1.508,0,2.734,1.227,2.734,2.734V203.42z"/>
	<path d="M111.601,170.52H90.604c-8.125,0-14.734,6.609-14.734,14.734v18.166c0,8.125,6.61,14.734,14.734,14.734h20.997
		c8.125,0,14.734-6.609,14.734-14.734v-18.166C126.335,177.129,119.726,170.52,111.601,170.52z M114.335,203.42
		c0,1.508-1.227,2.734-2.734,2.734H90.604c-1.508,0-2.734-1.227-2.734-2.734v-18.166c0-1.508,1.227-2.734,2.734-2.734h20.997
		c1.508,0,2.734,1.227,2.734,2.734V203.42z"/>
	<path d="M169.06,170.52h-20.997c-8.125,0-14.734,6.609-14.734,14.734v18.166c0,8.125,6.61,14.734,14.734,14.734h20.997
		c8.125,0,14.734-6.609,14.734-14.734v-18.166C183.794,177.129,177.184,170.52,169.06,170.52z M171.794,203.42
		c0,1.508-1.227,2.734-2.734,2.734h-20.997c-1.508,0-2.734-1.227-2.734-2.734v-18.166c0-1.508,1.227-2.734,2.734-2.734h20.997
		c1.508,0,2.734,1.227,2.734,2.734V203.42z"/>
	<path d="M226.518,170.52h-20.997c-8.125,0-14.734,6.609-14.734,14.734v18.166c0,8.125,6.61,14.734,14.734,14.734h20.997
		c8.125,0,14.734-6.609,14.734-14.734v-18.166C241.252,177.129,234.643,170.52,226.518,170.52z M229.252,203.42
		c0,1.508-1.227,2.734-2.734,2.734h-20.997c-1.508,0-2.734-1.227-2.734-2.734v-18.166c0-1.508,1.227-2.734,2.734-2.734h20.997
		c1.508,0,2.734,1.227,2.734,2.734V203.42z"/>
	<path d="M54.143,232.976H33.146c-8.125,0-14.734,6.609-14.734,14.734v18.165c0,8.125,6.61,14.734,14.734,14.734h20.998
		c8.125,0,14.734-6.609,14.734-14.734V247.71C68.877,239.585,62.268,232.976,54.143,232.976z M56.877,265.875
		c0,1.508-1.227,2.734-2.734,2.734H33.146c-1.508,0-2.734-1.227-2.734-2.734V247.71c0-1.508,1.227-2.734,2.734-2.734h20.998
		c1.508,0,2.734,1.227,2.734,2.734V265.875z"/>
	<path d="M111.601,232.976H90.604c-8.125,0-14.734,6.609-14.734,14.734v18.165c0,8.125,6.61,14.734,14.734,14.734h20.997
		c8.125,0,14.734-6.609,14.734-14.734V247.71C126.335,239.585,119.726,232.976,111.601,232.976z M114.335,265.875
		c0,1.508-1.227,2.734-2.734,2.734H90.604c-1.508,0-2.734-1.227-2.734-2.734V247.71c0-1.508,1.227-2.734,2.734-2.734h20.997
		c1.508,0,2.734,1.227,2.734,2.734V265.875z"/>
	<path d="M169.06,232.976h-20.997c-8.125,0-14.734,6.609-14.734,14.734v18.165c0,8.125,6.61,14.734,14.734,14.734h20.997
		c8.125,0,14.734-6.609,14.734-14.734V247.71C183.794,239.585,177.184,232.976,169.06,232.976z M171.794,265.875
		c0,1.508-1.227,2.734-2.734,2.734h-20.997c-1.508,0-2.734-1.227-2.734-2.734V247.71c0-1.508,1.227-2.734,2.734-2.734h20.997
		c1.508,0,2.734,1.227,2.734,2.734V265.875z"/>
	<path d="M226.518,232.976h-20.997c-8.125,0-14.734,6.609-14.734,14.734v18.165c0,8.125,6.61,14.734,14.734,14.734h20.997
		c8.125,0,14.734-6.609,14.734-14.734V247.71C241.252,239.585,234.643,232.976,226.518,232.976z M229.252,265.875
		c0,1.508-1.227,2.734-2.734,2.734h-20.997c-1.508,0-2.734-1.227-2.734-2.734V247.71c0-1.508,1.227-2.734,2.734-2.734h20.997
		c1.508,0,2.734,1.227,2.734,2.734V265.875z"/>
	<path d="M291.674,243.52h-18.42c-8.125,0-14.734,6.609-14.734,14.734v7.621c0,8.125,6.61,14.734,14.734,14.734h18.42
		c8.125,0,14.734-6.609,14.734-14.734v-7.621C306.409,250.129,299.799,243.52,291.674,243.52z M294.409,265.875
		c0,1.508-1.227,2.734-2.734,2.734h-18.42c-1.508,0-2.734-1.227-2.734-2.734v-7.621c0-1.508,1.227-2.734,2.734-2.734h18.42
		c1.508,0,2.734,1.227,2.734,2.734V265.875z"/>
	<path d="M345.284,243.52h-18.42c-8.125,0-14.734,6.609-14.734,14.734v7.621c0,8.125,6.61,14.734,14.734,14.734h18.42
		c8.125,0,14.734-6.609,14.734-14.734v-7.621C360.019,250.129,353.409,243.52,345.284,243.52z M348.019,265.875
		c0,1.508-1.227,2.734-2.734,2.734h-18.42c-1.508,0-2.734-1.227-2.734-2.734v-7.621c0-1.508,1.227-2.734,2.734-2.734h18.42
		c1.508,0,2.734,1.227,2.734,2.734V265.875z"/>
	<path d="M398.894,243.52h-18.42c-8.125,0-14.734,6.609-14.734,14.734v7.621c0,8.125,6.61,14.734,14.734,14.734h18.42
		c8.125,0,14.734-6.609,14.734-14.734v-7.621C413.628,250.129,407.018,243.52,398.894,243.52z M401.628,265.875
		c0,1.508-1.227,2.734-2.734,2.734h-18.42c-1.508,0-2.734-1.227-2.734-2.734v-7.621c0-1.508,1.227-2.734,2.734-2.734h18.42
		c1.508,0,2.734,1.227,2.734,2.734V265.875z"/>
	<path d="M345.284,305.976h-18.42c-8.125,0-14.734,6.609-14.734,14.734v7.62c0,8.125,6.61,14.734,14.734,14.734h18.42
		c8.125,0,14.734-6.609,14.734-14.734v-7.62C360.019,312.585,353.409,305.976,345.284,305.976z M348.019,328.33
		c0,1.508-1.227,2.734-2.734,2.734h-18.42c-1.508,0-2.734-1.227-2.734-2.734v-7.62c0-1.508,1.227-2.734,2.734-2.734h18.42
		c1.508,0,2.734,1.227,2.734,2.734V328.33z"/>
	<path d="M398.894,305.976h-18.42c-8.125,0-14.734,6.609-14.734,14.734v7.62c0,8.125,6.61,14.734,14.734,14.734h18.42
		c8.125,0,14.734-6.609,14.734-14.734v-7.62C413.628,312.585,407.018,305.976,398.894,305.976z M401.628,328.33
		c0,1.508-1.227,2.734-2.734,2.734h-18.42c-1.508,0-2.734-1.227-2.734-2.734v-7.62c0-1.508,1.227-2.734,2.734-2.734h18.42
		c1.508,0,2.734,1.227,2.734,2.734V328.33z"/>
	<path d="M345.284,368.431h-18.42c-8.125,0-14.734,6.609-14.734,14.734v7.62c0,8.125,6.61,14.734,14.734,14.734h18.42
		c8.125,0,14.734-6.609,14.734-14.734v-7.62C360.019,375.04,353.409,368.431,345.284,368.431z M348.019,390.785
		c0,1.508-1.227,2.734-2.734,2.734h-18.42c-1.508,0-2.734-1.227-2.734-2.734v-7.62c0-1.508,1.227-2.734,2.734-2.734h18.42
		c1.508,0,2.734,1.227,2.734,2.734V390.785z"/>
	<path d="M398.894,368.431h-18.42c-8.125,0-14.734,6.609-14.734,14.734v7.62c0,8.125,6.61,14.734,14.734,14.734h18.42
		c8.125,0,14.734-6.609,14.734-14.734v-7.62C413.628,375.04,407.018,368.431,398.894,368.431z M401.628,390.785
		c0,1.508-1.227,2.734-2.734,2.734h-18.42c-1.508,0-2.734-1.227-2.734-2.734v-7.62c0-1.508,1.227-2.734,2.734-2.734h18.42
		c1.508,0,2.734,1.227,2.734,2.734V390.785z"/>
	<path d="M291.674,181.064h-18.42c-8.125,0-14.734,6.609-14.734,14.734v7.621c0,8.125,6.61,14.734,14.734,14.734h18.42
		c8.125,0,14.734-6.609,14.734-14.734v-7.621C306.409,187.674,299.799,181.064,291.674,181.064z M294.409,203.42
		c0,1.508-1.227,2.734-2.734,2.734h-18.42c-1.508,0-2.734-1.227-2.734-2.734v-7.621c0-1.508,1.227-2.734,2.734-2.734h18.42
		c1.508,0,2.734,1.227,2.734,2.734V203.42z"/>
	<path d="M345.284,181.064h-18.42c-8.125,0-14.734,6.609-14.734,14.734v7.621c0,8.125,6.61,14.734,14.734,14.734h18.42
		c8.125,0,14.734-6.609,14.734-14.734v-7.621C360.019,187.674,353.409,181.064,345.284,181.064z M348.019,203.42
		c0,1.508-1.227,2.734-2.734,2.734h-18.42c-1.508,0-2.734-1.227-2.734-2.734v-7.621c0-1.508,1.227-2.734,2.734-2.734h18.42
		c1.508,0,2.734,1.227,2.734,2.734V203.42z"/>
	<path d="M398.894,181.064h-18.42c-8.125,0-14.734,6.609-14.734,14.734v7.621c0,8.125,6.61,14.734,14.734,14.734h18.42
		c8.125,0,14.734-6.609,14.734-14.734v-7.621C413.628,187.674,407.018,181.064,398.894,181.064z M401.628,203.42
		c0,1.508-1.227,2.734-2.734,2.734h-18.42c-1.508,0-2.734-1.227-2.734-2.734v-7.621c0-1.508,1.227-2.734,2.734-2.734h18.42
		c1.508,0,2.734,1.227,2.734,2.734V203.42z"/>
	<path d="M54.143,295.431H33.146c-8.125,0-14.734,6.609-14.734,14.734v18.165c0,8.125,6.61,14.734,14.734,14.734h20.998
		c8.125,0,14.734-6.609,14.734-14.734v-18.165C68.877,302.04,62.268,295.431,54.143,295.431z M56.877,328.33
		c0,1.508-1.227,2.734-2.734,2.734H33.146c-1.508,0-2.734-1.227-2.734-2.734v-18.165c0-1.508,1.227-2.734,2.734-2.734h20.998
		c1.508,0,2.734,1.227,2.734,2.734V328.33z"/>
	<path d="M111.601,295.431H90.604c-8.125,0-14.734,6.609-14.734,14.734v18.165c0,8.125,6.61,14.734,14.734,14.734h20.997
		c8.125,0,14.734-6.609,14.734-14.734v-18.165C126.335,302.04,119.726,295.431,111.601,295.431z M114.335,328.33
		c0,1.508-1.227,2.734-2.734,2.734H90.604c-1.508,0-2.734-1.227-2.734-2.734v-18.165c0-1.508,1.227-2.734,2.734-2.734h20.997
		c1.508,0,2.734,1.227,2.734,2.734V328.33z"/>
	<path d="M169.06,295.431h-20.997c-8.125,0-14.734,6.609-14.734,14.734v18.165c0,8.125,6.61,14.734,14.734,14.734h20.997
		c8.125,0,14.734-6.609,14.734-14.734v-18.165C183.794,302.04,177.184,295.431,169.06,295.431z M171.794,328.33
		c0,1.508-1.227,2.734-2.734,2.734h-20.997c-1.508,0-2.734-1.227-2.734-2.734v-18.165c0-1.508,1.227-2.734,2.734-2.734h20.997
		c1.508,0,2.734,1.227,2.734,2.734V328.33z"/>
	<path d="M226.518,295.431h-20.997c-8.125,0-14.734,6.609-14.734,14.734v18.165c0,8.125,6.61,14.734,14.734,14.734h20.997
		c8.125,0,14.734-6.609,14.734-14.734v-18.165C241.252,302.04,234.643,295.431,226.518,295.431z M229.252,328.33
		c0,1.508-1.227,2.734-2.734,2.734h-20.997c-1.508,0-2.734-1.227-2.734-2.734v-18.165c0-1.508,1.227-2.734,2.734-2.734h20.997
		c1.508,0,2.734,1.227,2.734,2.734V328.33z"/>
	<path d="M54.143,357.886H33.146c-8.125,0-14.734,6.609-14.734,14.734v18.165c0,8.125,6.61,14.734,14.734,14.734h20.998
		c8.125,0,14.734-6.609,14.734-14.734V372.62C68.877,364.495,62.268,357.886,54.143,357.886z M56.877,390.785
		c0,1.508-1.227,2.734-2.734,2.734H33.146c-1.508,0-2.734-1.227-2.734-2.734V372.62c0-1.508,1.227-2.734,2.734-2.734h20.998
		c1.508,0,2.734,1.227,2.734,2.734V390.785z"/>
	<path d="M111.601,357.886H90.604c-8.125,0-14.734,6.609-14.734,14.734v18.165c0,8.125,6.61,14.734,14.734,14.734h20.997
		c8.125,0,14.734-6.609,14.734-14.734V372.62C126.335,364.495,119.726,357.886,111.601,357.886z M114.335,390.785
		c0,1.508-1.227,2.734-2.734,2.734H90.604c-1.508,0-2.734-1.227-2.734-2.734V372.62c0-1.508,1.227-2.734,2.734-2.734h20.997
		c1.508,0,2.734,1.227,2.734,2.734V390.785z"/>
	<path d="M169.06,357.886h-20.997c-8.125,0-14.734,6.609-14.734,14.734v18.165c0,8.125,6.61,14.734,14.734,14.734h20.997
		c8.125,0,14.734-6.609,14.734-14.734V372.62C183.794,364.495,177.184,357.886,169.06,357.886z M171.794,390.785
		c0,1.508-1.227,2.734-2.734,2.734h-20.997c-1.508,0-2.734-1.227-2.734-2.734V372.62c0-1.508,1.227-2.734,2.734-2.734h20.997
		c1.508,0,2.734,1.227,2.734,2.734V390.785z"/>
	<path d="M226.518,357.886h-20.997c-8.125,0-14.734,6.609-14.734,14.734v18.165c0,8.125,6.61,14.734,14.734,14.734h20.997
		c8.125,0,14.734-6.609,14.734-14.734V372.62C241.252,364.495,234.643,357.886,226.518,357.886z M229.252,390.785
		c0,1.508-1.227,2.734-2.734,2.734h-20.997c-1.508,0-2.734-1.227-2.734-2.734V372.62c0-1.508,1.227-2.734,2.734-2.734h20.997
		c1.508,0,2.734,1.227,2.734,2.734V390.785z"/>
	<path d="M291.674,295.431h-18.42c-8.125,0-14.734,6.609-14.734,14.734v80.62c0,8.125,6.61,14.734,14.734,14.734h18.42
		c8.125,0,14.734-6.609,14.734-14.734v-80.62C306.409,302.04,299.799,295.431,291.674,295.431z M294.409,390.785
		c0,1.508-1.227,2.734-2.734,2.734h-18.42c-1.508,0-2.734-1.227-2.734-2.734v-80.62c0-1.508,1.227-2.734,2.734-2.734h18.42
		c1.508,0,2.734,1.227,2.734,2.734V390.785z"/>
	<path d="M235.252,149.52H24.411c-3.313,0-6,2.687-6,6s2.687,6,6,6h210.841c3.314,0,6-2.687,6-6S238.566,149.52,235.252,149.52z"/>
	<path d="M407.628,149.52H360.52c-3.313,0-6,2.687-6,6s2.687,6,6,6h47.108c3.313,0,6-2.687,6-6S410.941,149.52,407.628,149.52z"/>
	<path d="M317.628,155.52c0-3.313-2.687-6-6-6H264.52c-3.313,0-6,2.687-6,6s2.687,6,6,6h47.108
		C314.941,161.52,317.628,158.833,317.628,155.52z"/>
</g>
</svg>